<?xml version="1.0" encoding="utf-8"?>
<!-- Generator: Adobe Illustrator 23.0.0, SVG Export Plug-In . SVG Version: 6.00 Build 0)  -->
<svg version="1.1" id="Layer_1" xmlns="http://www.w3.org/2000/svg" xmlns:xlink="http://www.w3.org/1999/xlink" x="0px" y="0px"
	 viewBox="0 0 120.026 56.882" style="enable-background:new 0 0 120.026 56.882;" xml:space="preserve">
<style type="text/css">
	.st0{fill:#EB008B;}
	.st1{fill:#2D2D2D;}
</style>
<g>
	<path class="st0" d="M61.671,28.586l-2.824,8.206c-0.899,2.611,0.12,5.31,2.275,6.029l0.549,0.183V28.586z"/>
	<path class="st0" d="M72.893,7.267l0.81-2.353c0.203-0.59,0.829-0.915,1.398-0.725l9.227,3.078h12.727L75.8,0.177
		c-2.155-0.719-4.631,0.815-5.529,3.426L69.01,7.267H72.893z"/>
	<path class="st0" d="M117.424,14.062l-3.794-1.266c0,0.03,0.004,0.058,0.004,0.088v4.159l1.594,0.532
		c0.569,0.19,0.865,0.822,0.662,1.412l-2.256,6.555v12.172L119.7,20.09C120.598,17.48,119.58,14.78,117.424,14.062z"/>
	<path class="st0" d="M91.585,52.982l11.161,3.723c2.155,0.719,4.631-0.815,5.529-3.426l0.102-0.297H91.585z"/>
</g>
<path class="st1" d="M107.621,9.549H67.615c-2.266,0-4.103,1.803-4.103,4.028v33.632c0,2.225,1.837,4.028,4.103,4.028h40.006
	c2.266,0,4.103-1.803,4.103-4.028V13.577C111.724,11.353,109.887,9.549,107.621,9.549z M108.792,38.256
	c0,0.941-0.681,1.703-1.522,1.703H67.694c-0.841,0-1.522-0.763-1.522-1.703V14.341c0-0.941,0.681-1.703,1.522-1.703h39.576
	c0.841,0,1.522,0.762,1.522,1.703C108.792,14.341,108.792,38.256,108.792,38.256z"/>
<g>
	<g>
		<path class="st1" d="M2.283,12.232h3.596c2.46,0,4.409,0.743,5.848,2.229c1.438,1.486,2.158,3.347,2.158,5.581
			c0,2.235-0.719,4.095-2.158,5.581c-1.438,1.486-3.388,2.229-5.848,2.229H4.566v6.463c0,0.691-0.224,1.284-0.672,1.779
			c-0.449,0.495-0.985,0.743-1.61,0.743c-0.626,0-1.163-0.248-1.611-0.743C0.224,35.599,0,35.006,0,34.315v-19.56
			c0-0.691,0.224-1.284,0.672-1.78C1.12,12.48,1.657,12.232,2.283,12.232z M4.566,16.863v6.359h1.282
			c1.084,0,1.939-0.265,2.564-0.795c0.626-0.53,0.938-1.324,0.938-2.384c0-1.059-0.313-1.854-0.938-2.385
			c-0.625-0.53-1.48-0.795-2.564-0.795C5.848,16.863,4.566,16.863,4.566,16.863z"/>
	</g>
	<g>
		<path class="st1" d="M15.195,34.501c-1.61-1.574-2.416-3.514-2.416-5.82s0.805-4.246,2.416-5.82
			c1.61-1.574,3.586-2.361,5.926-2.361s4.316,0.787,5.926,2.361c1.61,1.575,2.416,3.514,2.416,5.82s-0.805,4.246-2.416,5.82
			c-1.61,1.575-3.586,2.362-5.926,2.362S16.805,36.076,15.195,34.501z M18.223,25.721c-0.795,0.798-1.192,1.785-1.192,2.96
			s0.403,2.162,1.208,2.96c0.805,0.798,1.766,1.197,2.882,1.197s2.077-0.399,2.883-1.197c0.805-0.798,1.208-1.785,1.208-2.96
			c0-1.175-0.403-2.162-1.208-2.96c-0.805-0.798-1.766-1.197-2.883-1.197C20.005,24.524,19.038,24.923,18.223,25.721z"/>
	</g>
	<g>
		<path class="st1" d="M34.573,22.711c0.943-1.465,2.16-2.197,3.653-2.197c0.216,0,0.393,0.011,0.53,0.033
			c0.53,0.089,0.957,0.322,1.281,0.699c0.324,0.378,0.486,0.832,0.486,1.365c0,0.577-0.172,1.071-0.515,1.482
			c-0.344,0.411-0.771,0.616-1.282,0.616c-0.079,0-0.216-0.022-0.412-0.067c-0.294-0.066-0.589-0.1-0.884-0.1
			c-0.923,0-1.63,0.394-2.121,1.182c-0.491,0.788-0.737,1.826-0.737,3.113v5.859c0,0.599-0.191,1.116-0.574,1.548
			c-0.383,0.433-0.84,0.649-1.37,0.649s-0.987-0.216-1.37-0.649c-0.383-0.433-0.574-0.949-0.574-1.548V22.711
			c0-0.599,0.192-1.115,0.574-1.548c0.383-0.433,0.84-0.649,1.37-0.649c0.53,0,0.987,0.216,1.37,0.649
			C34.382,21.596,34.573,22.112,34.573,22.711z"/>
	</g>
	<g>
		<path class="st1" d="M45.261,22.679c1.08-1.465,2.504-2.198,4.271-2.198c1.434,0,2.639,0.527,3.616,1.582s1.465,2.448,1.465,4.179
			v8.425c0,0.599-0.203,1.116-0.608,1.549c-0.405,0.433-0.888,0.649-1.45,0.649c-0.561,0-1.044-0.216-1.45-0.649
			c-0.405-0.433-0.608-0.949-0.608-1.549v-7.393c0-0.888-0.245-1.604-0.733-2.148c-0.488-0.544-1.117-0.816-1.886-0.816
			s-1.398,0.272-1.886,0.816c-0.489,0.544-0.733,1.26-0.733,2.148v7.393c0,0.599-0.203,1.116-0.608,1.549
			c-0.405,0.433-0.888,0.649-1.45,0.649s-1.044-0.216-1.45-0.649c-0.405-0.433-0.608-0.949-0.608-1.549V22.679
			c0-0.599,0.203-1.116,0.608-1.549c0.405-0.433,0.888-0.649,1.45-0.649s1.044,0.216,1.45,0.649
			C45.058,21.563,45.261,22.08,45.261,22.679z"/>
	</g>
</g>
<g>
	<g>
		<path class="st0" d="M74.441,18.978h2.371c1.621,0,2.907,0.5,3.855,1.498c0.949,0.999,1.422,2.25,1.422,3.751
			c0,1.502-0.474,2.753-1.422,3.751c-0.949,0.999-2.234,1.498-3.855,1.498h-0.866v4.344c0,0.465-0.148,0.863-0.444,1.196
			s-0.649,0.5-1.062,0.5s-0.766-0.167-1.062-0.5s-0.444-0.732-0.444-1.196V20.674c0-0.465,0.147-0.863,0.444-1.196
			C73.675,19.144,74.029,18.978,74.441,18.978z M75.947,22.091v4.274h0.845c0.714,0,1.278-0.178,1.691-0.534
			c0.412-0.356,0.619-0.89,0.619-1.603c0-0.712-0.206-1.246-0.619-1.603c-0.412-0.356-0.976-0.534-1.691-0.534
			C76.792,22.091,75.947,22.091,75.947,22.091z"/>
	</g>
	<g>
		<path class="st0" d="M85.156,22.223c-0.344,0.337-0.751,0.506-1.223,0.506s-0.88-0.172-1.223-0.517
			c-0.343-0.344-0.515-0.759-0.515-1.243s0.172-0.898,0.515-1.243c0.344-0.344,0.751-0.517,1.223-0.517s0.879,0.172,1.223,0.517
			c0.343,0.345,0.515,0.759,0.515,1.243S85.499,21.871,85.156,22.223z M82.517,34.014v-7.919c0-0.396,0.139-0.737,0.418-1.023
			c0.279-0.286,0.612-0.429,0.998-0.429s0.719,0.143,0.998,0.429c0.279,0.286,0.418,0.627,0.418,1.023v7.919
			c0,0.396-0.139,0.737-0.418,1.023s-0.612,0.429-0.998,0.429s-0.719-0.143-0.998-0.429S82.517,34.41,82.517,34.014z"/>
	</g>
	<g>
		<path class="st0" d="M91.296,24.657c1.199,0,2.246,0.429,3.142,1.286c0.353,0.325,0.53,0.709,0.53,1.153
			c0,0.37-0.113,0.687-0.341,0.953c-0.227,0.266-0.505,0.399-0.833,0.399c-0.29,0-0.561-0.125-0.814-0.377
			c-0.492-0.488-1.048-0.731-1.666-0.731c-0.643,0-1.196,0.263-1.656,0.787c-0.461,0.525-0.691,1.186-0.691,1.984
			c0,0.798,0.23,1.46,0.691,1.984c0.46,0.525,1.012,0.787,1.656,0.787c0.618,0,1.174-0.244,1.666-0.731
			c0.252-0.251,0.523-0.377,0.814-0.377c0.328,0,0.606,0.133,0.833,0.399c0.227,0.266,0.341,0.584,0.341,0.953
			c0,0.443-0.177,0.828-0.53,1.153c-0.896,0.857-1.943,1.285-3.142,1.285c-1.337,0-2.479-0.528-3.425-1.585
			c-0.946-1.057-1.419-2.346-1.419-3.868s0.473-2.811,1.419-3.868C88.817,25.185,89.959,24.657,91.296,24.657z"/>
	</g>
	<g>
		<path class="st0" d="M97.167,32.483c0.42,0.441,0.869,0.661,1.346,0.661c0.35,0,0.627-0.092,0.831-0.275
			c0.203-0.183,0.305-0.422,0.305-0.715c0-0.337-0.098-0.613-0.294-0.826c-0.196-0.212-0.554-0.429-1.072-0.649
			c-1.655-0.719-2.482-1.762-2.482-3.127c0-0.837,0.294-1.527,0.883-2.07c0.589-0.543,1.346-0.815,2.271-0.815
			c0.953,0,1.78,0.308,2.482,0.925c0.28,0.264,0.421,0.558,0.421,0.881c0,0.279-0.105,0.525-0.316,0.738
			c-0.21,0.213-0.456,0.319-0.736,0.319c-0.225,0-0.421-0.066-0.589-0.198c-0.28-0.22-0.568-0.33-0.862-0.33
			c-0.519,0-0.778,0.198-0.778,0.595c0,0.235,0.097,0.433,0.293,0.595c0.195,0.162,0.557,0.36,1.088,0.595
			c1.645,0.749,2.468,1.857,2.468,3.325c0,0.983-0.31,1.794-0.931,2.433c-0.621,0.638-1.496,0.958-2.625,0.958
			c-1.345,0-2.452-0.492-3.321-1.475c-0.21-0.22-0.316-0.492-0.316-0.815c0-0.323,0.105-0.598,0.316-0.826
			c0.21-0.227,0.463-0.341,0.757-0.341C96.599,32.043,96.886,32.19,97.167,32.483z"/>
	</g>
</g>
</svg>
