<svg width="241" height="120" viewBox="0 0 241 120" fill="none" xmlns="http://www.w3.org/2000/svg">
<path d="M11.3274 120L0.7378 90.1408H10.9802L16.9694 110.105H17.143L23.1756 90.1408H32.984L22.4378 120H11.3274ZM51.0679 120L49.8093 115.79H39.3499L38.0913 120H28.2829L39.1763 90.1408H50.3301L61.2235 120H51.0679ZM41.3463 109.107H47.8129L44.6881 98.4736H44.5145L41.3463 109.107ZM61.3676 90.1408H70.959V112.362H86.2792V120H61.3676V90.1408ZM87.2771 120V90.1408H96.8685V120H87.2771ZM113.173 90.1408C123.618 90.1408 128.84 95.1173 128.84 105.07C128.84 115.023 123.618 120 113.173 120H100.239V90.1408H113.173ZM109.831 112.839H112.999C117.021 112.839 119.032 110.683 119.032 106.372V103.768C119.032 99.4573 117.021 97.3018 112.999 97.3018H109.831V112.839ZM148.689 120L147.43 115.79H136.971L135.712 120H125.904L136.797 90.1408H147.951L158.845 120H148.689ZM138.967 109.107H145.434L142.309 98.4736H142.136L138.967 109.107ZM173.166 97.7792V120H163.575V97.7792H153.766V90.1408H182.931V97.7792H173.166ZM183.829 90.1408H209.652V97.3018H193.42V101.425H207.308V108.282H193.42V112.839H209.955V120H183.829V90.1408ZM224.611 90.1408C235.056 90.1408 240.278 95.1173 240.278 105.07C240.278 115.023 235.056 120 224.611 120H211.677V90.1408H224.611ZM221.269 112.839H224.437C228.459 112.839 230.47 110.683 230.47 106.372V103.768C230.47 99.4573 228.459 97.3018 224.437 97.3018H221.269V112.839Z" fill="black"/>
<g clip-path="url(#clip0_1309_5)">
<path d="M240.7 83L210.1 3.2C209.3 1.1 207.7 0 205.5 0H2.4C0.8 0 0 0.9 0 2.7V84.1C0 85.1 0.2 85.9 0.6 86.3C1.1 86.8 2 87 3.3 87H24.7C27.5 87 28.9 85.9 28.9 83.6V53.7C28.9 53.5 28.9 53.3 29.1 53C29.4 52.6 29.8 52.4 30.4 52.4H36.3C38.4 52.4 39.8 53 40.3 54.3L52.3 84.5C52.8 86.1 54 87 55.7 87H80.5C81.5 87 82.2 86.7 82.7 85.9C83.2 85.1 83.3 84.2 82.8 83.2L66.7 50.4C66.2 49.2 66.4 48.5 67.2 48.2C70.4 47 73.3 45.4 75.7 43.2C78.3 40.9 80.3 38.2 81.7 35.1C83.2 32 83.9 28.6 83.9 24.9C83.9 21.2 83.7 21 83.2 19.2L101 18.9C101.9 18.9 102.4 19.4 102.4 20.5V84.6C102.4 86.2 103.2 86.9 104.7 86.9H128.9C130.5 86.9 131.3 86 131.3 84.3V20C131.3 19.2 131.8 18.8 132.8 18.8H170.1L145.5 82.6C145 83.8 144.9 84.9 145.4 85.8C145.8 86.6 146.5 87 147.4 87H166.8C167.7 87 168.4 86.8 168.8 86.5C169.3 86.1 169.6 85.7 169.8 85.2L175 71.4C175.3 70.5 175.9 70.1 176.9 70.1H204C204.7 70.1 205.1 70.3 205.3 70.6C205.6 70.8 205.8 71.1 205.9 71.5L210.9 85C211.3 86.3 212.3 87 213.7 87H238.7C239.6 87 240.2 86.5 240.5 85.6C240.9 84.7 240.9 83.8 240.5 83H240.7ZM51.3 32.6C49.6 34.2 47.1 34.9 43.9 34.9H31.1C29.6 34.9 28.9 34.1 28.9 32.4V19.6C28.9 18 29.9 17.2 31.8 17.2H43C45.7 17.2 50 19.3 50.5 19.5C50.5 19.5 53.8 23.3 53.8 26.3C53.8 29.3 52.9 30.8 51.1 32.4L51.3 32.6ZM197.8 50.2H183.3C181.8 50.2 181.3 49.4 182 47.7L189.8 27.8C190 27.4 190.2 27.2 190.6 27.2C191 27.2 191.2 27.4 191.4 27.8L199.1 47.9C199.6 49.5 199.2 50.2 197.9 50.2H197.8Z" fill="black"/>
</g>
<defs>
<clipPath id="clip0_1309_5">
<rect width="241" height="87" fill="white"/>
</clipPath>
</defs>
</svg>
